<svg width="24.000000" height="24.000000" viewBox="0 0 24 24" fill="none" xmlns="http://www.w3.org/2000/svg" xmlns:xlink="http://www.w3.org/1999/xlink">
	<desc>
			Created with Pixso.
	</desc>
	<defs>
		<clipPath id="clip13_14">
			<rect id="Frame" width="24.000000" height="24.000000" fill="white" fill-opacity="0"/>
		</clipPath>
	</defs>
	<rect id="Frame" width="24.000000" height="24.000000" fill="#0B1919" fill-opacity="0"/>
	<g clip-path="url(#clip13_14)">
		<path id="Vector" d="M21.54 6.49C22 8.28 22 12 22 12C22 12 22 15.72 21.54 17.5C21.28 18.48 20.54 19.26 19.6 19.52C17.89 20 12 20 12 20C12 20 6.1 20 4.39 19.52C3.45 19.25 2.7 18.48 2.45 17.5C2 15.72 2 12 2 12C2 12 2 8.28 2.45 6.49C2.71 5.51 3.45 4.73 4.39 4.47C6.1 4 12 4 12 4C12 4 17.89 4 19.6 4.47C20.55 4.74 21.29 5.51 21.54 6.49ZM10 15.5L16 12L10 8.5L10 15.5Z" fill="#899D9D" fill-opacity="1.000000" fill-rule="nonzero"/>
	</g>
</svg>
