<svg width="65.000000" height="20.000000" viewBox="0 0 65 20" fill="none" xmlns="http://www.w3.org/2000/svg" xmlns:xlink="http://www.w3.org/1999/xlink">
	<desc>
			Created with Pixso.
	</desc>
	<defs/>
	<path id="logo" d="M42.56 8.45Q42.88 8.45 43.07 8.61Q43.33 8.83 43.33 9.36C43.33 9.85 43.19 10.33 42.9 10.81C42.63 11.26 42.26 11.63 41.79 11.92C41.32 12.22 40.81 12.37 40.28 12.37C39.71 12.37 38.97 12.16 38.06 11.75Q37.51 15.78 35.23 17.9Q34.47 18.61 33.6 19.07Q31.85 20 29.62 20C28.23 20 26.97 19.68 25.86 19.05C24.78 18.4 23.92 17.55 23.31 16.49C22.69 15.43 22.38 14.28 22.38 13.04C22.38 12.51 22.44 11.98 22.57 11.45Q22.71 10.85 22.95 10.3Q23.34 9.41 23.98 8.63Q24.73 7.72 25.67 7.1Q26.05 6.85 26.45 6.65Q27.74 6.01 29.06 5.95L29.06 5.95Q29.19 5.94 29.31 5.94C30.34 5.94 31.18 6.22 31.84 6.77C33.07 5.45 33.69 4.31 33.69 3.32C33.69 2.95 33.63 2.67 33.5 2.47Q33.32 2.15 32.98 1.88C32.82 1.72 32.69 1.59 32.61 1.47Q32.49 1.29 32.49 0.97Q32.49 0.65 32.63 0.42L32.63 0.42Q32.69 0.33 32.76 0.26C32.95 0.08 33.19 0 33.47 0C33.92 0 34.29 0.19 34.58 0.58C34.87 0.98 35.01 1.5 35.01 2.15Q35.01 3.79 33.72 5.5C32.86 6.64 31.82 7.71 30.61 8.71Q28.79 10.19 26.05 12.16L24.26 13.49C24.47 14.55 24.89 15.49 25.53 16.31C26.16 17.12 26.92 17.75 27.8 18.2Q28.59 18.57 29.42 18.73Q30.02 18.85 30.64 18.85Q32.32 18.85 33.66 18.17Q34.55 17.72 35.29 16.96C36.54 15.7 37.3 13.9 37.57 11.54L36.98 11.25Q35.69 10.6 34.92 10.3C34.41 10.09 33.91 9.98 33.44 9.98C33.15 9.98 32.92 10.04 32.73 10.16C32.57 10.27 32.49 10.42 32.49 10.6C32.49 10.83 32.57 11.11 32.73 11.42C32.9 11.78 32.98 12.03 32.98 12.19C32.98 12.37 32.92 12.53 32.8 12.69C32.67 12.83 32.49 12.9 32.24 12.9C31.99 12.9 31.79 12.83 31.62 12.69Q31.41 12.45 31.41 11.95C31.41 11.44 31.57 10.95 31.9 10.48C32.25 10.01 32.69 9.64 33.23 9.36Q33.95 8.98 34.69 8.93L34.69 8.93Q34.8 8.92 34.92 8.92C35.43 8.92 35.96 9.03 36.49 9.24C37.05 9.44 37.72 9.73 38.52 10.13C39.18 10.46 39.75 10.73 40.22 10.92Q40.93 11.19 41.51 11.19C41.78 11.19 42 11.14 42.16 11.04Q42.39 10.89 42.43 10.71Q42.44 10.67 42.44 10.63C42.44 10.45 42.33 10.23 42.13 9.95C42.01 9.79 41.91 9.66 41.85 9.54C41.79 9.42 41.76 9.28 41.76 9.13Q41.76 8.84 41.9 8.68Q42.09 8.45 42.56 8.45ZM63.45 10.95C62.45 10.05 61.08 9.5 59.36 9.3C60.57 8.87 61.49 8.27 62.13 7.51C62.79 6.74 63.12 5.89 63.12 4.94Q63.12 3.98 62.7 3.25Q62.31 2.58 61.58 2.12C60.55 1.47 59.1 1.14 57.23 1.14C56.92 1.14 56.56 1.15 56.15 1.17C55.74 1.19 55.44 1.21 55.23 1.23C54.61 1.29 54.02 1.32 53.44 1.32C52.89 1.32 52.14 1.3 51.19 1.26L49.56 1.23C49.52 1.23 49.5 1.29 49.5 1.41C49.5 1.53 49.52 1.59 49.56 1.59C50.44 1.59 51.03 1.72 51.32 2C51.61 2.25 51.75 2.79 51.75 3.62L51.75 17.26C51.75 17.83 51.68 18.26 51.53 18.55C51.41 18.83 51.19 19.02 50.89 19.14C50.58 19.24 50.13 19.29 49.53 19.29C49.47 19.29 49.44 19.35 49.44 19.46C49.44 19.58 49.47 19.64 49.53 19.64C50.23 19.64 50.78 19.63 51.19 19.61L53.44 19.58C53.96 19.58 54.42 19.59 54.83 19.61C55.26 19.63 55.62 19.65 55.91 19.67C56.65 19.73 57.3 19.76 57.88 19.76C59.21 19.76 60.43 19.52 61.51 19.05C62.6 18.56 63.45 17.9 64.07 17.08C64.69 16.25 65 15.33 65 14.31Q65 13.38 64.66 12.59Q64.28 11.68 63.45 10.95ZM13.73 5.41C13.73 5.45 13.67 5.48 13.55 5.5C13.45 5.52 13.38 5.5 13.36 5.44Q12.9 3.82 11.82 3Q11.76 2.95 11.7 2.91Q10.53 2.09 8.62 2.09L7.7 2.09Q6.77 2.09 6.34 2.47Q6.31 2.5 6.28 2.53L6.28 2.53Q5.91 2.91 5.91 3.65L5.91 10.01L8.13 10.01Q9.91 10.01 10.84 9.42C11.47 9.01 11.79 8.45 11.79 7.74C11.79 7.7 11.85 7.68 11.98 7.68C12.1 7.68 12.16 7.7 12.16 7.74L12.13 10.42Q12.13 11.36 12.16 11.84L12.19 13.4C12.19 13.46 12.13 13.49 12.01 13.49C11.89 13.49 11.82 13.46 11.82 13.4Q11.82 12.83 11.59 12.38Q11.35 11.89 10.84 11.54Q9.88 10.83 8.1 10.83L5.91 10.83L5.91 17.14C5.91 17.75 5.99 18.2 6.16 18.49C6.32 18.79 6.63 18.99 7.08 19.11C7.53 19.23 8.24 19.29 9.21 19.29Q9.21 19.29 9.22 19.29Q9.27 19.31 9.27 19.46C9.27 19.58 9.25 19.64 9.21 19.64Q7.94 19.64 7.23 19.61L4.09 19.58L1.78 19.61Q1.17 19.64 0.09 19.64C0.03 19.64 0 19.58 0 19.46Q0 19.33 0.05 19.3Q0.07 19.29 0.09 19.29C0.81 19.29 1.33 19.24 1.66 19.14C1.99 19.04 2.2 18.86 2.31 18.58Q2.49 18.14 2.49 17.26L2.49 3.62Q2.49 2.73 2.34 2.32Q2.28 2.17 2.18 2.05Q2.01 1.85 1.72 1.76Q1.26 1.59 0.3 1.59Q0.28 1.59 0.27 1.58Q0.21 1.55 0.21 1.41Q0.21 1.27 0.27 1.24Q0.28 1.23 0.3 1.23L13.36 1.23Q13.54 1.23 13.62 1.32Q13.67 1.38 13.67 1.5L13.73 5.41ZM55.54 2.2C55.76 1.93 56.17 1.79 56.77 1.79Q57.92 1.79 58.64 2.34Q58.83 2.49 58.99 2.68Q59.76 3.53 59.76 5.21C59.76 6.41 59.47 7.39 58.9 8.15Q58.58 8.57 58.17 8.84Q57.45 9.3 56.43 9.3L55.2 9.27L55.2 3.68C55.2 2.95 55.31 2.46 55.54 2.2ZM24.26 10.51Q24.11 11.45 24.11 12.1Q24.11 12.43 24.17 13.01C24.72 12.58 25.3 12.15 25.89 11.72Q28.7 9.66 30.27 8.3C29.76 7.26 28.91 6.74 27.74 6.74C26.94 6.74 26.22 7.1 25.59 7.83C24.97 8.54 24.53 9.43 24.26 10.51ZM60.4 18.01Q59.39 19.02 57.36 19.02C56.45 19.02 55.87 18.9 55.6 18.64C55.33 18.37 55.2 17.9 55.2 17.26L55.2 10.16C55.67 10.12 56.21 10.1 56.8 10.1C58.34 10.1 59.49 10.54 60.25 11.42C61.01 12.31 61.39 13.51 61.39 15.02Q61.39 17.01 60.4 18.01Z" fill="#FFFFFF" fill-opacity="1.000000" fill-rule="evenodd"/>
</svg>
