<svg width="24.000000" height="24.000000" viewBox="0 0 24 24" fill="none" xmlns="http://www.w3.org/2000/svg" xmlns:xlink="http://www.w3.org/1999/xlink">
	<desc>
			Created with Pixso.
	</desc>
	<defs/>
	<circle id="Ellipse 1" cx="12.000000" cy="12.000000" r="11.500000" stroke="#899D9D" stroke-opacity="1.000000" stroke-width="1.000000"/>
	<path id="3.1" d="M10.27 13.31Q9.71 12.67 8.59 12.5C9.14 12.27 9.57 11.94 9.88 11.49Q10.24 10.98 10.33 10.42Q10.36 10.23 10.36 10.03Q10.36 9.67 10.23 9.35Q10.1 9.02 9.82 8.75Q9.74 8.67 9.66 8.61Q9.16 8.21 8.33 8.21Q7.98 8.21 7.71 8.27Q7.43 8.32 7.05 8.43C6.82 8.52 6.63 8.56 6.51 8.56Q6.37 8.56 6.3 8.49Q6.23 8.42 6.23 8.29C6.23 8.26 6.24 8.2 6.27 8.11C6.28 8.1 6.27 8.09 6.23 8.08C6.2 8.06 6.17 8.05 6.14 8.05Q6.11 8.05 6.07 8.08L5.48 10.42C5.47 10.46 5.51 10.48 5.61 10.48Q5.67 10.48 5.67 10.46L5.67 10.46Q6.03 9.58 6.57 9.12C6.94 8.81 7.35 8.66 7.8 8.66Q8.01 8.66 8.17 8.74Q8.37 8.84 8.51 9.09C8.67 9.36 8.75 9.77 8.75 10.3Q8.75 11.36 8.23 11.95C7.89 12.34 7.35 12.62 6.6 12.82C6.57 12.83 6.56 12.86 6.59 12.93C6.61 12.99 6.63 13.02 6.67 13.01C6.89 12.94 7.11 12.91 7.32 12.91Q7.83 12.91 8.2 13.13Q8.43 13.27 8.62 13.49C8.94 13.86 9.1 14.36 9.1 14.99Q9.1 16.02 8.33 17.06Q7.56 18.11 5.82 18.82C5.78 18.84 5.76 18.87 5.79 18.93Q5.82 18.99 5.86 18.99Q5.88 19 5.9 18.99C7 18.66 7.91 18.26 8.65 17.79C9.4 17.33 9.95 16.84 10.3 16.32Q10.84 15.54 10.84 14.78Q10.84 14.42 10.73 14.1Q10.59 13.67 10.27 13.31ZM15.25 14.5C15.25 14.56 15.27 14.59 15.3 14.59Q15.88 14.59 16.21 14.58L17.48 14.56L18.74 14.58C18.95 14.59 19.25 14.59 19.64 14.59C19.67 14.59 19.68 14.56 19.68 14.5C19.68 14.43 19.67 14.4 19.64 14.4Q19.01 14.4 18.72 14.32C18.53 14.27 18.4 14.16 18.34 14.02C18.28 13.87 18.24 13.63 18.24 13.3L18.24 8.38Q18.24 8.35 18.23 8.33Q18.22 8.32 18.21 8.3C18.19 8.27 18.16 8.26 18.13 8.26C18.11 8.26 18.09 8.26 18.08 8.27L15.17 9.65C15.13 9.67 15.12 9.71 15.14 9.76Q15.17 9.83 15.21 9.84Q15.21 9.84 15.22 9.84L15.24 9.84Q16 9.54 16.26 9.54C16.44 9.54 16.56 9.61 16.63 9.76C16.7 9.9 16.74 10.14 16.74 10.48L16.74 13.3C16.74 13.62 16.7 13.86 16.63 14.02C16.55 14.16 16.41 14.27 16.21 14.32Q15.92 14.4 15.3 14.4C15.27 14.4 15.25 14.43 15.25 14.5ZM12.29 14.51C12.47 14.68 12.71 14.77 13.01 14.77C13.31 14.77 13.54 14.68 13.7 14.51C13.87 14.34 13.95 14.1 13.95 13.79Q13.95 13.44 13.79 13.22Q13.75 13.16 13.7 13.12C13.54 12.95 13.31 12.86 13.01 12.86C12.71 12.86 12.47 12.95 12.29 13.12Q12.22 13.19 12.17 13.27Q12.03 13.49 12.03 13.79C12.03 14.09 12.12 14.33 12.29 14.51Z" fill="#899D9D" fill-opacity="1.000000" fill-rule="evenodd"/>
</svg>
