<svg width="24.000000" height="24.000000" viewBox="0 0 24 24" fill="none" xmlns="http://www.w3.org/2000/svg" xmlns:xlink="http://www.w3.org/1999/xlink">
	<desc>
			Created with Pixso.
	</desc>
	<defs/>
	<circle id="Ellipse 1" cx="12.000000" cy="12.000000" r="11.500000" stroke="#899D9D" stroke-opacity="1.000000" stroke-width="1.000000"/>
	<path id="1.4" d="M19.43 14.08C19.43 13.91 19.41 13.82 19.38 13.82C18.87 13.84 18.5 13.86 18.29 13.86L18.29 8.32C18.29 8.29 18.28 8.27 18.24 8.26C18.21 8.23 18.18 8.22 18.15 8.22C18.1 8.22 18.07 8.23 18.05 8.26L13.09 14.27C13.05 14.31 13.04 14.36 13.08 14.4C13.11 14.44 13.15 14.46 13.2 14.46Q15.8 14.46 16.76 14.48L16.76 17.5C16.76 17.59 16.77 17.63 16.8 17.63L16.9 17.6L18.16 16.98C18.25 16.93 18.29 16.86 18.29 16.75L18.29 14.53L19.35 14.58C19.37 14.58 19.38 14.52 19.4 14.42C19.42 14.31 19.43 14.2 19.43 14.08ZM4.64 14.5C4.64 14.56 4.66 14.59 4.69 14.59Q5.27 14.59 5.6 14.58L6.87 14.56L8.13 14.58C8.34 14.59 8.64 14.59 9.03 14.59C9.06 14.59 9.07 14.56 9.07 14.5C9.07 14.43 9.06 14.4 9.03 14.4Q8.4 14.4 8.11 14.32C7.92 14.27 7.79 14.16 7.73 14.02C7.67 13.87 7.63 13.63 7.63 13.3L7.63 8.38Q7.63 8.35 7.62 8.33Q7.61 8.32 7.6 8.3C7.58 8.27 7.55 8.26 7.52 8.26Q7.49 8.26 7.47 8.27L4.56 9.65C4.52 9.67 4.51 9.71 4.53 9.76C4.55 9.81 4.58 9.84 4.61 9.84L4.63 9.84Q5.39 9.54 5.65 9.54Q5.81 9.54 5.91 9.61Q5.98 9.67 6.02 9.76C6.09 9.9 6.13 10.14 6.13 10.48L6.13 13.3C6.13 13.62 6.09 13.86 6.02 14.02C5.94 14.16 5.8 14.27 5.6 14.32Q5.31 14.4 4.69 14.4Q4.68 14.4 4.67 14.4Q4.64 14.42 4.64 14.5ZM16.76 13.9C16.26 13.91 15.4 13.92 14.16 13.92C14.05 13.92 14.02 13.88 14.08 13.81L16.76 10.67L16.76 13.9ZM10.31 14.51C10.49 14.68 10.73 14.77 11.03 14.77Q11.41 14.77 11.64 14.58Q11.68 14.55 11.71 14.51C11.89 14.34 11.97 14.1 11.97 13.79Q11.97 13.44 11.8 13.22Q11.76 13.16 11.71 13.12C11.55 12.95 11.33 12.86 11.03 12.86C10.73 12.86 10.49 12.95 10.31 13.12Q10.24 13.19 10.19 13.27Q10.05 13.49 10.05 13.79C10.05 14.09 10.14 14.33 10.31 14.51Z" fill="#899D9D" fill-opacity="1.000000" fill-rule="evenodd"/>
</svg>
