<svg width="24.000000" height="24.000000" viewBox="0 0 24 24" fill="none" xmlns="http://www.w3.org/2000/svg" xmlns:xlink="http://www.w3.org/1999/xlink">
	<desc>
			Created with Pixso.
	</desc>
	<defs/>
	<circle id="Ellipse 1" cx="12.000000" cy="12.000000" r="11.500000" stroke="#899D9D" stroke-opacity="1.000000" stroke-width="1.000000"/>
	<path id="2.4" d="M6.1 12.24C5.67 12.67 4.99 13.31 4.06 14.16C4.03 14.19 4.02 14.24 4.02 14.3Q4.02 14.4 4.05 14.5C4.08 14.56 4.12 14.59 4.16 14.59L9.06 14.59Q9.09 14.59 9.12 14.57Q9.14 14.56 9.15 14.54C9.18 14.5 9.2 14.46 9.2 14.42L9.54 12.51C9.54 12.48 9.5 12.46 9.44 12.46Q9.38 12.46 9.35 12.49Q9.35 12.5 9.34 12.51C9.27 12.76 9.1 12.94 8.85 13.06C8.6 13.16 8.26 13.23 7.82 13.26C7.4 13.3 6.76 13.31 5.9 13.31C5.85 13.31 5.81 13.3 5.79 13.28Q5.79 13.28 5.79 13.27Q5.78 13.24 5.82 13.2L6.46 12.72Q7.6 11.92 8.24 11.25C8.68 10.79 8.9 10.28 8.9 9.73Q8.9 9.32 8.73 9.02Q8.61 8.8 8.4 8.62C8.07 8.35 7.61 8.21 7.02 8.21Q6.45 8.21 5.76 8.45C5.54 8.52 5.38 8.56 5.28 8.56C5.12 8.56 5.04 8.47 5.04 8.29Q5.04 8.18 5.06 8.1C5.07 8.08 5.06 8.07 5.02 8.06C5 8.04 4.98 8.03 4.94 8.03Q4.89 8.03 4.88 8.05Q4.88 8.06 4.88 8.06L4.18 10.8C4.16 10.83 4.21 10.85 4.3 10.85Q4.36 10.85 4.37 10.83L4.37 10.83Q4.75 9.74 5.12 9.23C5.38 8.88 5.7 8.7 6.1 8.7Q6.4 8.7 6.62 8.83Q6.82 8.94 6.96 9.15C7.16 9.44 7.26 9.78 7.26 10.18Q7.26 10.22 7.26 10.27Q7.24 10.7 6.99 11.12C6.82 11.43 6.52 11.8 6.1 12.24ZM19.99 14.08C19.99 13.91 19.97 13.82 19.94 13.82C19.43 13.84 19.07 13.86 18.85 13.86L18.85 8.32C18.85 8.29 18.84 8.27 18.81 8.26C18.77 8.23 18.74 8.22 18.71 8.22C18.67 8.22 18.63 8.23 18.61 8.26L13.65 14.27C13.61 14.31 13.61 14.36 13.64 14.4C13.67 14.44 13.71 14.46 13.77 14.46Q16.36 14.46 17.32 14.48L17.32 17.5C17.32 17.59 17.33 17.63 17.37 17.63L17.46 17.6L18.73 16.98C18.81 16.93 18.85 16.86 18.85 16.75L18.85 14.53L19.91 14.58C19.93 14.58 19.95 14.52 19.96 14.42C19.98 14.31 19.99 14.2 19.99 14.08ZM17.32 13.9C16.83 13.91 15.96 13.92 14.73 13.92C14.61 13.92 14.58 13.88 14.65 13.81L17.32 10.67L17.32 13.9ZM10.87 14.51C11.05 14.68 11.29 14.77 11.59 14.77C11.89 14.77 12.12 14.68 12.28 14.51C12.45 14.34 12.53 14.1 12.53 13.79Q12.53 13.44 12.37 13.22Q12.33 13.16 12.28 13.12C12.12 12.95 11.89 12.86 11.59 12.86C11.29 12.86 11.05 12.95 10.87 13.12Q10.8 13.19 10.75 13.27Q10.61 13.49 10.61 13.79C10.61 14.09 10.7 14.33 10.87 14.51Z" fill="#899D9D" fill-opacity="1.000000" fill-rule="evenodd"/>
</svg>
