<svg width="24.000000" height="24.000000" viewBox="0 0 24 24" fill="none" xmlns="http://www.w3.org/2000/svg" xmlns:xlink="http://www.w3.org/1999/xlink">
	<desc>
			Created with Pixso.
	</desc>
	<defs/>
	<circle id="Ellipse 1" cx="12.000000" cy="12.000000" r="11.500000" stroke="#899D9D" stroke-opacity="1.000000" stroke-width="1.000000"/>
	<path id="1.2" d="M15.71 12.24C15.29 12.67 14.61 13.31 13.68 14.16C13.65 14.19 13.63 14.24 13.63 14.3Q13.63 14.4 13.66 14.5C13.7 14.56 13.73 14.59 13.78 14.59L18.67 14.59C18.72 14.59 18.75 14.58 18.77 14.54C18.8 14.5 18.82 14.46 18.82 14.42L19.15 12.51C19.15 12.48 19.12 12.46 19.06 12.46C19 12.46 18.97 12.48 18.96 12.51C18.89 12.76 18.72 12.94 18.46 13.06C18.22 13.16 17.88 13.23 17.44 13.26C17.01 13.3 16.37 13.31 15.52 13.31Q15.44 13.31 15.41 13.28C15.4 13.26 15.41 13.23 15.44 13.2L16.08 12.72Q17.22 11.92 17.86 11.25C18.29 10.79 18.51 10.28 18.51 9.73Q18.51 9.32 18.34 9.02Q18.22 8.8 18.02 8.62C17.69 8.35 17.23 8.21 16.64 8.21Q16.06 8.21 15.38 8.45C15.15 8.52 14.99 8.56 14.9 8.56C14.74 8.56 14.66 8.47 14.66 8.29Q14.66 8.18 14.67 8.1C14.68 8.08 14.67 8.07 14.64 8.06C14.62 8.04 14.59 8.03 14.56 8.03C14.52 8.03 14.5 8.04 14.5 8.06L13.79 10.8C13.78 10.83 13.82 10.85 13.92 10.85C13.96 10.85 13.98 10.84 13.98 10.83Q14.37 9.74 14.74 9.23C14.99 8.88 15.32 8.7 15.71 8.7Q16.01 8.7 16.24 8.83Q16.44 8.94 16.58 9.15C16.78 9.44 16.88 9.78 16.88 10.18Q16.88 10.22 16.88 10.27Q16.85 10.7 16.61 11.12C16.44 11.43 16.14 11.8 15.71 12.24ZM5.07 14.5C5.07 14.56 5.09 14.59 5.12 14.59Q5.7 14.59 6.03 14.58L7.3 14.56L8.56 14.58C8.77 14.59 9.07 14.59 9.46 14.59C9.49 14.59 9.5 14.56 9.5 14.5C9.5 14.43 9.49 14.4 9.46 14.4Q8.83 14.4 8.54 14.32C8.35 14.27 8.22 14.16 8.16 14.02C8.1 13.87 8.06 13.63 8.06 13.3L8.06 8.38Q8.06 8.35 8.05 8.33Q8.04 8.32 8.03 8.3C8.01 8.27 7.98 8.26 7.95 8.26Q7.92 8.26 7.9 8.27L4.99 9.65C4.95 9.67 4.94 9.71 4.96 9.76C4.98 9.81 5.01 9.84 5.04 9.84L5.06 9.84Q5.82 9.54 6.08 9.54Q6.24 9.54 6.34 9.61Q6.41 9.67 6.45 9.76C6.52 9.9 6.56 10.14 6.56 10.48L6.56 13.3C6.56 13.62 6.52 13.86 6.45 14.02C6.37 14.16 6.23 14.27 6.03 14.32Q5.74 14.4 5.12 14.4C5.09 14.4 5.07 14.43 5.07 14.5ZM10.74 14.51C10.92 14.68 11.16 14.77 11.46 14.77Q11.84 14.77 12.07 14.58Q12.11 14.55 12.14 14.51C12.31 14.34 12.4 14.1 12.4 13.79Q12.4 13.44 12.23 13.22Q12.19 13.16 12.14 13.12C11.98 12.95 11.75 12.86 11.46 12.86C11.16 12.86 10.92 12.95 10.74 13.12Q10.67 13.19 10.62 13.27Q10.48 13.49 10.48 13.79C10.48 14.09 10.57 14.33 10.74 14.51Z" fill="#899D9D" fill-opacity="1.000000" fill-rule="evenodd"/>
</svg>
